<svg width="50" height="50" viewBox="0 0 50 50" fill="none" xmlns="http://www.w3.org/2000/svg">
<path d="M29.1666 31.25L20.8333 39.5833L29.1666 47.9167" stroke="#7162BB" stroke-width="2"/>
<path d="M37.6295 17.7083C38.9094 19.9253 39.5833 22.4401 39.5833 25C39.5833 27.5599 38.9094 30.0747 37.6295 32.2917C36.3495 34.5086 34.5085 36.3496 32.2916 37.6295C30.0746 38.9095 27.5598 39.5833 24.9999 39.5833" stroke="#7162BB" stroke-width="2" stroke-linecap="round"/>
<path d="M20.8334 18.75L29.1667 10.4167L20.8334 2.08333" stroke="#7162BB" stroke-width="2"/>
<path d="M12.3705 32.2917C11.0906 30.0747 10.4167 27.5599 10.4167 25C10.4167 22.4401 11.0906 19.9253 12.3705 17.7083C13.6505 15.4914 15.4915 13.6504 17.7084 12.3705C19.9254 11.0905 22.4402 10.4167 25.0001 10.4167" stroke="#7162BB" stroke-width="2" stroke-linecap="round"/>
</svg>
